<svg xmlns="http://www.w3.org/2000/svg" viewBox="0 0 280 320" fill="none" width="280" height="320">
  <defs>
    <filter id="bodyGlow" x="-30%" y="-30%" width="160%" height="160%">
      <feGaussianBlur stdDeviation="7" result="blur"/>
      <feMerge><feMergeNode in="blur"/><feMergeNode in="SourceGraphic"/></feMerge>
    </filter>
    <radialGradient id="bodyGrad" cx="50%" cy="40%" r="55%">
      <stop offset="0%"   stop-color="#162035"/>
      <stop offset="100%" stop-color="#080D1A"/>
    </radialGradient>
    <radialGradient id="auraGrad" cx="50%" cy="50%" r="50%">
      <stop offset="0%"   stop-color="#F4B400" stop-opacity="0.20"/>
      <stop offset="100%" stop-color="#F4B400" stop-opacity="0"/>
    </radialGradient>
  </defs>
  <ellipse cx="140" cy="168" rx="120" ry="110" fill="url(#auraGrad)"/>
  <ellipse cx="34"  cy="118" rx="36" ry="17" fill="rgba(244,180,0,0.14)" stroke="#F4B400" stroke-width="1.4" transform="rotate(-28 34 118)"/>
  <ellipse cx="20"  cy="146" rx="30" ry="14" fill="rgba(244,180,0,0.09)" stroke="#F4B400" stroke-width="1"   transform="rotate(-22 20 146)"/>
  <ellipse cx="246" cy="118" rx="36" ry="17" fill="rgba(244,180,0,0.14)" stroke="#F4B400" stroke-width="1.4" transform="rotate(28 246 118)"/>
  <ellipse cx="260" cy="146" rx="30" ry="14" fill="rgba(244,180,0,0.09)" stroke="#F4B400" stroke-width="1"   transform="rotate(22 260 146)"/>
  <polygon points="140,14 256,78 256,206 140,270 24,206 24,78" fill="url(#bodyGrad)" stroke="#F4B400" stroke-width="2.2" filter="url(#bodyGlow)"/>
  <clipPath id="bodyClip"><polygon points="140,14 256,78 256,206 140,270 24,206 24,78"/></clipPath>
  <g clip-path="url(#bodyClip)" opacity="0.18">
    <rect x="0" y="152" width="280" height="16" fill="#F4B400"/>
    <rect x="0" y="180" width="280" height="12" fill="#F4B400"/>
    <rect x="0" y="204" width="280" height="10" fill="#F4B400"/>
  </g>
  <ellipse cx="140" cy="148" rx="72" ry="65" fill="#0D1525" stroke="rgba(244,180,0,0.18)" stroke-width="1"/>
  <circle cx="112" cy="135" r="20" fill="#080D1A" stroke="#FFD54F" stroke-width="2" filter="url(#eyeGlow)"/>
  <circle cx="112" cy="135" r="11" fill="#FFD54F" opacity="0.95"/>
  <circle cx="116" cy="131" r="4"  fill="white"/>
  <circle cx="168" cy="135" r="20" fill="#080D1A" stroke="#FFD54F" stroke-width="2"/>
  <circle cx="168" cy="135" r="11" fill="#FFD54F" opacity="0.95"/>
  <circle cx="172" cy="131" r="4"  fill="white"/>
  <path d="M115 164 Q140 184 165 164" stroke="#F4B400" stroke-width="2.5" fill="none" stroke-linecap="round"/>
  <line x1="118" y1="58" x2="95"  y2="18" stroke="#F4B400" stroke-width="2" stroke-linecap="round"/>
  <line x1="162" y1="58" x2="185" y2="18" stroke="#F4B400" stroke-width="2" stroke-linecap="round"/>
  <circle cx="93"  cy="15" r="6" fill="#FFD54F" stroke="#F4B400" stroke-width="1.5"/>
  <circle cx="187" cy="15" r="6" fill="#FFD54F" stroke="#F4B400" stroke-width="1.5"/>
  <polygon points="140,270 132,296 148,296" fill="#F4B400" opacity="0.85"/>
</svg>